<?xml version="1.0" encoding="UTF-8"?>
<svg id="Layer_2" data-name="Layer 2" xmlns="http://www.w3.org/2000/svg" viewBox="0 0 535.2 157.2">
  <defs>
    <style>
      .cls-1 {
        fill: #222;
      }
    </style>
  </defs>
  <g id="Layer_1-2" data-name="Layer 1">
    <path class="cls-1" d="m160.08,1.2h-54v2.4l20.4,12v103.92L40.56,1.2H0v2.4l20.4,12v129.6l-1.2,1.2H1.2v10.8h51.6v-10.8h-18l-1.2-1.2V24.48l96.72,132.72h9.36V15.6l20.4-12V1.2Zm124.32,144L231.84,0h-9.12l-54.48,145.2-1.2,1.2h-16.56v10.8h49.92v-10.8h-17.76l-1.2-1.2,15.36-42.72h52.56l14.64,42.72-1.2,1.2h-11.52v10.8h48.24v-10.8h-13.92l-1.2-1.2Zm-83.76-53.52l22.8-63.84h.48l21.84,63.84h-45.12Zm79.68-49.68h1.2l17.04-30h38.4v133.2l-1.2,1.2h-18v10.8h57.6v-10.8h-18l-1.2-1.2V12h38.4l16.8,30h1.44V1.2h-132.48v40.8Zm253.68,75.6l-19.92,28.8h-54.48v-66.48h39.6l1.2,1.2v18h10.8v-49.2h-10.8v18l-1.2,1.2h-39.6V12h51.84l15.84,28.8h1.2V1.2h-108.48v2.4l20.4,12v129.6l-1.2,1.2h-18v10.8h111.6l2.4-39.6h-1.2Z"/>
  </g>
</svg>